# xmcd CD database file
#
# Track frame offsets:
#	150
#	20333
#	43271
#	61305
#	85212
#	108590
#	120014
#	141729
#	162653
#	182644
#
# Disc length: 2745 seconds
#
# Revision: 0
# Processed by: cddbd v1.5.2PL0 Copyright (c) Steve Scherf et al.
# Submitted via: CDex 1.51
#
DISCID=890ab70a
DTITLE=Peter Kater - Call Of Love
DYEAR=2010
DGENRE=New Age
TTITLE0=Call Of Love
TTITLE1=Breath Of Life
TTITLE2=Song Of My Heart
TTITLE3=Everlasting Waltz
TTITLE4=Here For You
TTITLE5=In Every Life
TTITLE6=A Tale To Tell
TTITLE7=My Beloved
TTITLE8=Fields Of Gold
TTITLE9=Each Moment
EXTD=YEAR: 2010
EXTT0=
EXTT1=
EXTT2=
EXTT3=
EXTT4=
EXTT5=
EXTT6=
EXTT7=
EXTT8=
EXTT9=
PLAYORDER=
